<svg id="Layer_1" data-name="Layer 1" xmlns="http://www.w3.org/2000/svg" xmlns:xlink="http://www.w3.org/1999/xlink" viewBox="0 0 1600 540.65"><defs><style>.cls-1{fill:url(#linear-gradient);}</style><linearGradient id="linear-gradient" y1="270.32" x2="1600" y2="270.32" gradientUnits="userSpaceOnUse"><stop offset="0" stop-color="#002aff"/><stop offset="0.33" stop-color="#1376f2"/><stop offset="0.65" stop-color="#24bce7"/><stop offset="0.88" stop-color="#2fe7e0"/><stop offset="1" stop-color="#33f7dd"/></linearGradient></defs><path class="cls-1" d="M0,490.14V.07C1.12.05,2.24,0,3.36,0q796,.08,1591.93.08c3.52,0,4.68.61,4.68,4.49q-.17,215.82,0,431.63c0,4-1.67,4.92-5,5.13q-26.94,1.74-53.83,4c-17.25,1.48-34.38,3.76-51.46,6.36-43.84,6.7-86.81,17.27-129.27,30-44.8,13.39-89.36,27.62-135.14,37.47a890.22,890.22,0,0,1-88.37,14.55c-19.19,2.15-38.48,3.49-57.78,4.62a1364.78,1364.78,0,0,1-145.72.72c-25.4-1.24-50.75-3-76-5.89-18.27-2.11-36.43-4.92-54.53-8.13-48-8.5-94.79-21.75-141.27-36.13C616.65,475,571.39,462.6,525,454.67c-18.63-3.19-37.29-6.14-56.07-8.13q-48.25-5.1-96.79-6.26c-60.29-1.55-120.43.21-180.39,7a875,875,0,0,0-110.6,20C53.83,474,27,482.24,0,490.14Z"/></svg>